<?xml version="1.0" encoding="UTF-8"?>
<svg xmlns="http://www.w3.org/2000/svg" viewBox="50 205 782 100">
  <g>
    <path d="M124.1,280.3l2.9,10.1c-8.3,6.7-19.4,10-33.4,10s-8.6-.5-12.6-1.4c-4-1-7.8-2.4-11.4-4.5-3.5-2-6.6-4.5-9.2-7.4-2.6-2.9-4.7-6.4-6.2-10.6-1.5-4.1-2.3-8.7-2.3-13.6s.8-8.6,2.3-12.6c1.5-4,3.6-7.5,6.2-10.5,2.6-3,5.7-5.6,9.2-7.8,3.5-2.2,7.3-3.9,11.4-5,4.1-1.1,8.3-1.7,12.6-1.7s10.9.7,16.6,2.2c5.7,1.4,10.7,3.5,15.1,6.3l-3.4,10.3c-.8,2.5-1.3,3.8-1.5,3.8-.3,0-.7-1-1.2-2.9-.6-2.5-1.5-4.7-2.7-6.7-1.2-1.9-2.8-3.7-4.8-5.2-2-1.5-4.5-2.7-7.5-3.6-3-.9-6.5-1.3-10.5-1.4-2.8,0-5.4.4-7.8,1.1-2.4.7-4.5,1.7-6.3,2.9-1.8,1.2-3.4,2.7-4.9,4.5-1.5,1.8-2.7,3.6-3.6,5.7-1,2-1.8,4.2-2.4,6.5-.6,2.3-1.1,4.7-1.4,7-.3,2.3-.4,4.7-.4,7.1,0,3.5.3,6.8,1,9.9.6,3.2,1.8,6.3,3.3,9.4,1.6,3.1,3.5,5.7,5.8,8,2.3,2.2,5.3,4.1,8.9,5.4,3.6,1.4,7.8,2,12.3,2s10.1-1.4,14.1-4.3c4-2.9,7.3-7.1,9.7-12.7,0-.2.2-.5.3-.8.1-.3.2-.5.2-.6,0-.1.1-.3.2-.5,0-.2.2-.3.2-.3,0,0,.2-.1.3-.1.2,0,.4.1.5.4.1.2.3.8.5,1.6Z"/>
    <path d="M167.2,259.5h42v-22.3c0-5.3-1.6-8.3-4.7-9.1-.7-.3-1.1-.5-1.1-.7,0-.3.5-.4,1.6-.4s2,0,4.6.2c2.7.1,4.7.2,6,.2s3.3,0,6-.2c2.7-.1,4.2-.2,4.6-.2,1.1,0,1.6.1,1.6.4s-.4.4-1.1.7c-3.2.8-4.7,3.8-4.7,9.1v49c0,2.9.4,5.2,1.2,6.8.8,1.7,2.4,3.1,4.7,4.2.7.4,1,.6,1,.9s-.6.3-1.8.3-2.8,0-4.9-.2c-2.1-.1-4.4-.2-6.7-.2s-4.5,0-6.7.2c-2.1.1-3.8.2-4.9.2s-1.8-.1-1.8-.3.3-.5,1-.9c2.3-1.1,3.9-2.6,4.7-4.2.8-1.7,1.2-3.9,1.2-6.8v-24h-42v24c0,2.9.4,5.1,1.2,6.8.8,1.7,2.4,3.1,4.8,4.2.6.3,1,.6,1,.9s-.6.3-1.8.3-2.8,0-4.9-.2c-2.1-.1-4.4-.2-6.7-.2s-4.5,0-6.7.2c-2.1.1-3.8.2-4.9.2s-1.8-.1-1.8-.3.3-.5,1-.9c2.3-1.1,3.9-2.6,4.7-4.2.8-1.7,1.2-3.9,1.2-6.8v-49c0-5.3-1.6-8.3-4.7-9.1-.7-.3-1.1-.5-1.1-.7,0-.3.6-.4,1.7-.4s2,0,4.6.2c2.6.1,4.6.2,6,.2s3.3,0,6-.2c2.7-.1,4.2-.2,4.6-.2,1.1,0,1.6.1,1.6.4s-.4.4-1.1.7c-3.2.8-4.7,3.8-4.7,9.1v22.3Z"/>
    <path d="M296.4,265.9h-26.2l-6,11.6c-2.6,5-3.9,9.2-3.9,12.6s.2,2.1.5,2.9c.3.8.8,1.5,1.5,2,.7.5,1.3,1,1.8,1.2.6.3,1.3.6,2.2.9.8.2,1.2.5,1.2.8s-.5.5-1.3.5-.7,0-1.6,0c-1,0-2.3-.1-4-.2-1.7,0-3.4,0-5.2,0s-3.5,0-5.4.2c-1.9.1-2.9.2-3.1.2-1,0-1.5-.2-1.5-.5s.1-.4.3-.6c.2-.2.5-.4,1-.7.4-.3.7-.4.8-.5,2-1.6,4.3-4.2,6.8-7.8,2.5-3.6,4.5-6.8,6-9.6l27.1-52.6c.4-.6.6-.9.8-.9h.2c.3,0,.5.3.9.9l32.4,60.7c2.3,4.1,4.7,7.1,7.4,9.2.3.2.7.4,1.2.7.5.3.8.5,1.1.7.2.2.3.3.3.5,0,.4-.5.5-1.5.5s-.8,0-2,0c-1.2,0-2.8-.1-4.7-.2-1.9,0-3.8,0-5.7,0s-5,0-7.1,0c-2.1,0-3.6.1-4.6.2-1,0-1.5,0-1.5,0-.8,0-1.1-.1-1.1-.3,0-.3.5-.6,1.5-.9,2-.7,3.1-2.6,3.1-5.8s-1.7-6.1-5-12.6l-6.3-13ZM295,263.2l-11.9-23-11.6,23h23.4Z"/>
    <path d="M357.6,235.2v43.3c0,2.1.1,4,.3,5.7.2,1.7.6,3.4,1.2,5.1.6,1.7,1.4,3.3,2.6,4.6,1.1,1.3,2.6,2.4,4.3,3.2.2,0,.4.2.6.2.2,0,.4.2.5.2.1,0,.2.1.2.2,0,.3-.8.4-2.4.4h-18.5c-.7,0-1,0-1-.2,0-.3.3-.4.8-.4,5.8-2.8,8.7-9.2,8.7-19v-30.9c0-3.4-.1-6.3-.4-8.6-.2-2.3-.6-4.1-1.1-5.4-.5-1.3-1.1-2.2-1.6-2.8-.6-.6-1.3-1.1-2.2-1.5-1.3-.6-2-1-2-1.2,0-.4.6-.6,1.7-.6h18.3l48.6,49.6v-26.4c0-2.8-.1-5.3-.3-7.4-.2-2.1-.6-4.2-1.2-6.2-.6-2.1-1.5-3.8-2.6-5.3-1.2-1.4-2.7-2.5-4.5-3.3-.6-.2-.9-.5-.9-.9s.5-.5,1.5-.5h18.1c.8,0,1.1.1,1.1.4s-.6.8-1.9,1.5c-4.3,2.1-6.5,8.2-6.5,18.2v51.7c0,1.1-.2,1.7-.5,1.7h-.2c-.2,0-.4,0-.6-.2-.2-.2-.5-.5-.9-.9-.4-.4-.6-.7-.8-.8l-58.2-63.4Z"/>
    <path d="M475,281.4v-46c0-2.1-.5-3.5-1.5-4.1-1-.7-2.8-1-5.4-1s-5.1.3-7.5,1c-2.4.6-4.6,1.6-6.5,2.8-2,1.2-3.6,2.3-5,3.4-1.4,1.1-2.8,2.3-4.3,3.8-1.3,1.3-1.9,1.9-1.9,1.9-.4,0-.6-.2-.6-.6s0-.3.1-.6c0-.3.2-.6.4-.9.1-.4.3-.7.3-1l3.5-12.4h69.5l3.6,12.4.8,2.5c0,.4-.2.6-.5.6s-.7-.6-2-1.9c-1.5-1.5-2.9-2.7-4.3-3.8-1.3-1.1-3-2.2-5-3.4-2-1.2-4.2-2.1-6.5-2.8-2.4-.6-4.9-1-7.4-1s-4.4.3-5.4,1c-1,.7-1.5,2-1.5,4.1v50.9c0,6.3,2.2,9.8,6.6,10.7.5,0,.9.2,1.2.4.3.2.5.4.5.6s0,.2-.3.4c-.2.2-.4.2-.6.2s-.9,0-2.3,0c-1.5,0-3.3-.1-5.4-.2-2.2,0-4.2,0-6,0s-3.9,0-6,0c-2.1,0-3.9.1-5.3.2-1.4,0-2.2,0-2.3,0-.6,0-1-.2-1-.5s0-.3.3-.3c.2,0,.5-.2.9-.2.4,0,.7-.2,1-.3,2.5-1.1,4.1-2.7,4.9-4.7.8-2.1,1.2-5.7,1.2-10.9Z"/>
    <path d="M556.7,230.3v29.3h20.4c4,0,7.6-.8,10.7-2.4,3.2-1.6,5.1-3.5,5.9-5.8.2-.7.5-1,.9-1s.4.6.4,1.7v18.2c0,1.5-.1,2.3-.4,2.3s-.3,0-.3-.2c0-.1-.2-.3-.3-.7-.1-.3-.2-.6-.3-.7-.6-1.6-1.5-2.9-2.6-4-1.1-1.1-2.3-2-3.5-2.5-1.2-.6-2.7-1-4.5-1.3-1.8-.3-3.3-.5-4.6-.6-1.3,0-2.9-.1-4.8-.1h-17.1v23.3c0,3.9.7,6.5,2.2,7.8,1.5,1.3,4.1,2,8,2h12.5c4.6,0,9.7-1.1,15.2-3.4,5.5-2.3,10-5.2,13.6-8.6,1.7-1.5,2.7-2.3,3-2.3s.4.1.4.3,0,.2-.1.4c0,.2-.1.3-.2.5l-4.9,15.9h-67.2c-2.2,0-3.3-.1-3.3-.4s.2-.3.6-.4c.4-.2.9-.4,1.4-.6.5-.2.9-.4,1.1-.6,2-1.6,3.3-3.4,3.9-5.5.6-2.1.9-5.7.9-10.8v-37.5c0-4.1-.3-7.2-.9-9.2-.6-2-1.9-3.3-4-3.8-1.3-.5-1.9-.9-1.9-1,0-.5.7-.7,2.1-.7h62.4l3,10.4c.7,2.3,1,3.6,1,4.1s-.2.9-.5.9-1-.3-1.3-1c-2.2-3.6-5.9-6.5-10.9-8.5-5-2.1-10.3-3.1-15.8-3.1h-20.3Z"/>
    <path d="M582.4,222.2h-5.7l-17.9-10.8c-1.6-1-2.4-2.2-2.4-3.7s.5-2.7,1.5-3.7c1-1.1,2.2-1.6,3.6-1.6s3.2,1,5.3,3.1l15.7,16.8Z"/>
    <path d="M709.8,297.2c-.4-.2-.7-.4-.9-.5-1.5-.6-3.2-2.7-5-6.3-1.8-3.6-3.5-7.7-5-12.3-.8-2.3-1.8-4.3-3.1-6.1-1.3-1.8-2.8-3.3-4.3-4.4-1.6-1.2-3.4-2.2-5.5-3.1-2.1-.9-4.1-1.6-6.1-2-2-.5-4.2-.8-6.6-1.1v-.2c2.2,0,4.3,0,6.3-.2,2-.2,4.2-.4,6.5-.8,2.4-.4,4.5-1,6.4-1.8,1.9-.8,3.7-1.8,5.3-3.1,1.6-1.2,2.9-2.8,3.8-4.7.9-1.9,1.3-4.1,1.3-6.5,0-5.1-2.4-9.1-7.1-11.9-4.7-2.9-12-4.3-22-4.3h-41.3c-1.4,0-2.1.2-2.1.7s0,.2.1.3c0,.1.2.2.4.3.2,0,.3.1.5.2.2,0,.4.1.7.2.3,0,.5.1.7.2,1,.4,1.8.9,2.5,1.8.6.8,1.1,1.8,1.3,2.9.3,1.2.4,2.1.5,2.9,0,.8.1,1.8.1,2.9v46.4c0,2.9-.4,5.1-1.1,6.8-.7,1.7-2.1,3-4.1,4-1.2.5-1.8.8-1.8.9,0,.1.3.2.9.2h24.6c.8,0,1.2,0,1.2-.2s-.5-.4-1.6-.9c-1.9-.9-3.3-2.2-4.2-4-.8-1.8-1.2-4.1-1.2-6.9v-56h20.8c5.6,0,9.9,1.3,12.9,3.9,2.9,2.6,4.4,6,4.4,10.3s-.4,3.7-1.2,5.4c-.8,1.8-1.9,3.4-3.3,4.8-1.5,1.4-3.4,2.6-5.7,3.4-2.3.8-5.9,2-8.8,2,0,0-5.5.4-8.3.7v.2c.9,0,1.8.2,2.7.3.9.1,1.7.2,2.6.3,1.9.2,3.8.6,5.6,1.3,4.7,1.6,8.3,5.1,10.5,9.4.8,1.5,2.3,5.4,4.5,11.5l5.3,14.4h14.6c2.8,0,4.2,0,4.2-.2s0-.3-.2-.4c-.1-.1-.4-.3-.8-.5Z"/>
    <path d="M812,262.9c0,5.5-1.2,10.7-3.5,15.4-2.3,4.7-5.4,8.7-9.3,11.9-3.9,3.2-8.3,5.7-13.3,7.5-5,1.8-10.2,2.7-15.6,2.7s-10.6-.9-15.6-2.7c-5-1.8-9.5-4.3-13.3-7.5-3.9-3.2-7-7.2-9.3-11.9-2.3-4.7-3.5-9.9-3.5-15.4s.8-8.6,2.3-12.6c1.5-4,3.6-7.5,6.2-10.5,2.6-3,5.7-5.6,9.2-7.8,3.5-2.2,7.3-3.9,11.4-5,4.1-1.1,8.3-1.7,12.6-1.7s8.5.6,12.6,1.7c4.1,1.1,7.9,2.8,11.4,5,3.5,2.2,6.5,4.8,9.2,7.8,2.6,3,4.7,6.5,6.2,10.5,1.5,4,2.3,8.2,2.3,12.6ZM796.8,270c.3-2.3.4-4.7.4-7.1s-.1-4.8-.4-7.1c-.3-2.3-.8-4.6-1.4-7-.6-2.3-1.5-4.5-2.4-6.5-1-2-2.2-3.9-3.6-5.7-1.5-1.8-3.1-3.3-4.9-4.5-1.8-1.2-3.9-2.2-6.3-2.9-2.4-.7-5-1.1-7.8-1.1s-5.4.4-7.8,1.1c-2.4.7-4.5,1.7-6.3,2.9-1.8,1.2-3.4,2.7-4.9,4.5-1.5,1.8-2.7,3.6-3.6,5.7-1,2-1.8,4.2-2.4,6.5-.6,2.3-1.1,4.7-1.4,7-.3,2.3-.4,4.7-.4,7.1s.1,4.8.4,7.1c.3,2.3.8,4.6,1.4,7,.6,2.3,1.5,4.5,2.4,6.5,1,2,2.2,3.9,3.6,5.7,1.5,1.8,3.1,3.3,4.9,4.5,1.8,1.2,3.9,2.2,6.3,2.9,2.4.7,5,1.1,7.8,1.1s5.4-.4,7.8-1.1c2.4-.7,4.5-1.7,6.3-2.9,1.8-1.2,3.4-2.7,4.9-4.5,1.5-1.8,2.7-3.6,3.6-5.7,1-2,1.8-4.2,2.4-6.5.6-2.3,1.1-4.7,1.4-7Z"/>
  </g>
</svg>
